{"title":"Ungli.2014.DVDRip.x264.Hindi-ViZNU [P2PDL]","uid":11680260,"size":421286647,"categoryP":"video","categoryS":"movies","magnet":"?xt=urn:btih:fd37a554a1526384cab5533a72335cdc630e751a&amp;dn=Ungli.2014.DVDRip.x264.Hindi-ViZNU+%5BP2PDL%5D&amp;tr=udp%3A%2F%2Ftracker.openbittorrent.com%3A80&amp;tr=udp%3A%2F%2Fopen.demonii.com%3A1337&amp;tr=udp%3A%2F%2Ftracker.coppersurfer.tk%3A6969&amp;tr=udp%3A%2F%2Fexodus.desync.com%3A6969","seeders":1,"leechers":1,"uploader":"ValidusVyto","files":6,"time":1423008846,"description":"Ungli.2014.DVDRip.x264.AAC-ViZNU\n\n\nGenre: Comedy | Drama | Thriller\nIMDb: http://www.imdb.com/title/tt2392447/\n\nGeneral\nFormat                      : MPEG-4\nFile size                   : 397 MiB\nDuration                    : 1h 55mn\nOverall bit rate mode       : Variable\nOverall bit rate            : 482 Kbps\n\nVideo\nFormat                      : AVC\nBit rate                    : 447 Kbps\nWidth                       : 640 pixels\nHeight                      : 256 pixels\nDisplay aspect ratio        : 2.500\nFrame rate mode             : Constant\nFrame rate                  : 25.000 fps\nBit depth                   : 8 bits\nStream size                 : 368 MiB (93%)\nWriting library             : x264 core 142 r2491 24e4fed\n\nAudio\nFormat                      : AAC\nBit rate mode               : Variable\nBit rate                    : 31.9 Kbps\nChannel(s)                  : 2 channels\nChannel positions           : Front: L R\nSampling rate               : 48.0 KHz\nStream size                 : 26.3 MiB (7%)\nLanguage                    : Hindi\n\nSubtitle                    : Yes(English)\nSource                      : NTSC DVD9\n &lt;a href=&quot;\nhttp://someimage.com/ehxubgD&quot; rel=&quot;nofollow&quot; target=&quot;_NEW&quot;&gt;\nhttp://someimage.com/ehxubgD&lt;/a&gt; &lt;a href=&quot;\nhttp://someimage.com/geXC6Pf&quot; rel=&quot;nofollow&quot; target=&quot;_NEW&quot;&gt;\nhttp://someimage.com/geXC6Pf&lt;/a&gt; &lt;a href=&quot;\nhttp://someimage.com/FUHHvEG&quot; rel=&quot;nofollow&quot; target=&quot;_NEW&quot;&gt;\nhttp://someimage.com/FUHHvEG&lt;/a&gt; &lt;a href=&quot;\nhttp://someimage.com/KTd7xAB&quot; rel=&quot;nofollow&quot; target=&quot;_NEW&quot;&gt;\nhttp://someimage.com/KTd7xAB&lt;/a&gt; &lt;a href=&quot;\nhttp://someimage.com/ZsG8eo6&quot; rel=&quot;nofollow&quot; target=&quot;_NEW&quot;&gt;\nhttp://someimage.com/ZsG8eo6&lt;/a&gt;\n\n----------------------------------------------------------------------------------------------------\n\n\nEncoder Notes: Looking For Early Access To Anything You Can Provide DVDScr, R5, DVDR, BluRay, Direct\nAudio, Music Releases and Seedboxes. If You Got anything to offer please contact us.\n\nWe require dedicated servers, so as to do more and fast releases of movies.\nSupport us by donating LC - LezHMTo2cYaiztCCcWxB4cNFVNVpWW3GSx\n\nFind us! support us!","torrent":{"xt":"urn:btih:fd37a554a1526384cab5533a72335cdc630e751a","amp;dn":"Ungli.2014.DVDRip.x264.Hindi-ViZNU+%5BP2PDL%5D","amp;tr":["udp%3A%2F%2Ftracker.openbittorrent.com%3A80","udp%3A%2F%2Fopen.demonii.com%3A1337","udp%3A%2F%2Ftracker.coppersurfer.tk%3A6969","udp%3A%2F%2Fexodus.desync.com%3A6969"],"infoHash":"fd37a554a1526384cab5533a72335cdc630e751a","infoHashBuffer":{"type":"Buffer","data":[253,55,165,84,161,82,99,132,202,181,83,58,114,51,92,220,99,14,117,26]},"announce":[],"urlList":[]}}